<?xml version="1.0" standalone="no"?>
<!DOCTYPE svg PUBLIC "-//W3C//DTD SVG 20010904//EN"
 "http://www.w3.org/TR/2001/REC-SVG-20010904/DTD/svg10.dtd">
<svg version="1.0" xmlns="http://www.w3.org/2000/svg"
 width="96.000000pt" height="96.000000pt" viewBox="0 0 96.000000 96.000000"
 preserveAspectRatio="xMidYMid meet">
<metadata>
Created by potrace 1.16, written by Peter Selinger 2001-2019
</metadata>
<g transform="translate(0.000000,96.000000) scale(0.037500,-0.037500)"
fill="#000000" stroke="none">
<path d="M846 1880 l-79 -95 78 -3 c43 -2 79 -1 82 1 2 3 2 46 1 98 l-3 93
-79 -94z"/>
<path d="M980 1865 l0 -85 300 0 300 0 0 85 0 85 -300 0 -300 0 0 -85z"/>
<path d="M207 1541 l-207 -204 2 -597 3 -596 28 -42 c15 -23 46 -54 69 -69
l42 -28 607 -3 608 -2 371 310 371 310 -838 2 -838 3 -5 560 -5 560 -208 -204z"/>
<path d="M470 1555 l0 -175 304 0 304 0 7 28 c3 15 16 37 27 50 20 21 29 22
168 22 139 0 148 -1 168 -22 11 -13 24 -35 27 -50 l7 -28 304 0 304 0 0 175 0
175 -810 0 -810 0 0 -175z"/>
<path d="M1140 1411 c-5 -11 -10 -34 -10 -51 0 -67 7 -70 150 -70 143 0 150 3
150 70 0 67 -7 70 -150 70 -118 0 -130 -2 -140 -19z"/>
<path d="M470 1000 l0 -330 810 0 810 0 0 330 0 330 -304 0 -305 0 -6 -22 c-4
-13 -17 -33 -28 -45 -19 -22 -28 -23 -167 -23 -139 0 -148 1 -167 23 -11 12
-24 32 -28 45 l-6 22 -305 0 -304 0 0 -330z"/>
</g>
</svg>
